<mxfile host="app.diagrams.net" modified="2021-08-11T02:20:51.884Z" agent="5.0 (X11; Linux x86_64) AppleWebKit/537.36 (KHTML, like Gecko) Chrome/89.0.4389.114 Safari/537.36" etag="UCsvLQcxspaQGybNwKTo" version="14.9.6" type="github">
  <diagram id="dPnpiCAWirIEzYHN_m6W" name="Page-1">
    <mxGraphModel dx="622" dy="828" grid="1" gridSize="10" guides="1" tooltips="1" connect="1" arrows="1" fold="1" page="1" pageScale="1" pageWidth="850" pageHeight="1100" math="0" shadow="0">
      <root>
        <mxCell id="0" />
        <mxCell id="1" parent="0" />
        <mxCell id="v80r0oKCXjvkZ5n5FINj-14" value="" style="rounded=0;whiteSpace=wrap;html=1;" vertex="1" parent="1">
          <mxGeometry x="200" y="330" width="120" height="150" as="geometry" />
        </mxCell>
        <mxCell id="v80r0oKCXjvkZ5n5FINj-6" value="" style="rounded=0;whiteSpace=wrap;html=1;" vertex="1" parent="1">
          <mxGeometry x="40" y="330" width="120" height="150" as="geometry" />
        </mxCell>
        <mxCell id="v80r0oKCXjvkZ5n5FINj-7" value="Office (future bdrm?)&lt;br&gt;12w x 15h" style="text;html=1;strokeColor=none;fillColor=none;align=center;verticalAlign=middle;whiteSpace=wrap;rounded=0;" vertex="1" parent="1">
          <mxGeometry x="40" y="330" width="120" height="150" as="geometry" />
        </mxCell>
        <mxCell id="v80r0oKCXjvkZ5n5FINj-2" value="" style="rounded=0;whiteSpace=wrap;html=1;" vertex="1" parent="1">
          <mxGeometry x="40" y="480" width="230" height="250" as="geometry" />
        </mxCell>
        <mxCell id="v80r0oKCXjvkZ5n5FINj-4" value="Garage&lt;br&gt;23w x 25h" style="text;html=1;strokeColor=none;fillColor=none;align=center;verticalAlign=middle;whiteSpace=wrap;rounded=0;" vertex="1" parent="1">
          <mxGeometry x="120" y="580" width="70" height="20" as="geometry" />
        </mxCell>
        <mxCell id="v80r0oKCXjvkZ5n5FINj-8" value="" style="rounded=0;whiteSpace=wrap;html=1;" vertex="1" parent="1">
          <mxGeometry x="40" y="140" width="200" height="150" as="geometry" />
        </mxCell>
        <mxCell id="v80r0oKCXjvkZ5n5FINj-9" value="" style="rounded=0;whiteSpace=wrap;html=1;" vertex="1" parent="1">
          <mxGeometry x="60" y="270" width="80" height="20" as="geometry" />
        </mxCell>
        <mxCell id="v80r0oKCXjvkZ5n5FINj-10" value="Bench" style="text;html=1;strokeColor=none;fillColor=none;align=center;verticalAlign=middle;whiteSpace=wrap;rounded=0;" vertex="1" parent="1">
          <mxGeometry x="80" y="270" width="40" height="20" as="geometry" />
        </mxCell>
        <mxCell id="v80r0oKCXjvkZ5n5FINj-11" value="Bathroom/Laundry&lt;br&gt;20w x 15h" style="text;html=1;strokeColor=none;fillColor=none;align=center;verticalAlign=middle;whiteSpace=wrap;rounded=0;" vertex="1" parent="1">
          <mxGeometry x="40" y="140" width="200" height="150" as="geometry" />
        </mxCell>
        <mxCell id="v80r0oKCXjvkZ5n5FINj-12" value="Office (future bdrm?)&lt;br&gt;12w x 15h" style="text;html=1;strokeColor=none;fillColor=none;align=center;verticalAlign=middle;whiteSpace=wrap;rounded=0;" vertex="1" parent="1">
          <mxGeometry x="200" y="330" width="120" height="150" as="geometry" />
        </mxCell>
        <mxCell id="v80r0oKCXjvkZ5n5FINj-15" value="" style="shape=or;whiteSpace=wrap;html=1;" vertex="1" parent="1">
          <mxGeometry x="40" y="290" width="20" height="40" as="geometry" />
        </mxCell>
        <mxCell id="v80r0oKCXjvkZ5n5FINj-16" value="Front Door" style="text;html=1;strokeColor=none;fillColor=none;align=center;verticalAlign=middle;whiteSpace=wrap;rounded=0;" vertex="1" parent="1">
          <mxGeometry x="40" y="300" width="70" height="20" as="geometry" />
        </mxCell>
        <mxCell id="v80r0oKCXjvkZ5n5FINj-17" value="" style="rounded=0;whiteSpace=wrap;html=1;" vertex="1" parent="1">
          <mxGeometry x="240" y="140" width="20" height="150" as="geometry" />
        </mxCell>
        <mxCell id="v80r0oKCXjvkZ5n5FINj-18" value="" style="rounded=0;whiteSpace=wrap;html=1;" vertex="1" parent="1">
          <mxGeometry x="240" y="270" width="50" height="20" as="geometry" />
        </mxCell>
        <mxCell id="v80r0oKCXjvkZ5n5FINj-19" value="" style="rounded=0;whiteSpace=wrap;html=1;" vertex="1" parent="1">
          <mxGeometry x="240" y="140" width="80" height="20" as="geometry" />
        </mxCell>
        <mxCell id="v80r0oKCXjvkZ5n5FINj-20" value="" style="rounded=0;whiteSpace=wrap;html=1;" vertex="1" parent="1">
          <mxGeometry x="280" y="180" width="40" height="70" as="geometry" />
        </mxCell>
        <mxCell id="v80r0oKCXjvkZ5n5FINj-21" value="" style="rounded=0;whiteSpace=wrap;html=1;" vertex="1" parent="1">
          <mxGeometry x="320" y="400" width="80" height="80" as="geometry" />
        </mxCell>
        <mxCell id="v80r0oKCXjvkZ5n5FINj-23" value="" style="rounded=0;whiteSpace=wrap;html=1;" vertex="1" parent="1">
          <mxGeometry x="320" y="410" width="80" height="10" as="geometry" />
        </mxCell>
        <mxCell id="v80r0oKCXjvkZ5n5FINj-24" value="" style="rounded=0;whiteSpace=wrap;html=1;" vertex="1" parent="1">
          <mxGeometry x="320" y="420" width="80" height="10" as="geometry" />
        </mxCell>
        <mxCell id="v80r0oKCXjvkZ5n5FINj-25" value="" style="rounded=0;whiteSpace=wrap;html=1;" vertex="1" parent="1">
          <mxGeometry x="320" y="430" width="80" height="10" as="geometry" />
        </mxCell>
        <mxCell id="v80r0oKCXjvkZ5n5FINj-26" value="" style="rounded=0;whiteSpace=wrap;html=1;" vertex="1" parent="1">
          <mxGeometry x="320" y="440" width="80" height="10" as="geometry" />
        </mxCell>
        <mxCell id="v80r0oKCXjvkZ5n5FINj-27" value="" style="rounded=0;whiteSpace=wrap;html=1;" vertex="1" parent="1">
          <mxGeometry x="320" y="450" width="80" height="10" as="geometry" />
        </mxCell>
        <mxCell id="v80r0oKCXjvkZ5n5FINj-28" value="" style="rounded=0;whiteSpace=wrap;html=1;" vertex="1" parent="1">
          <mxGeometry x="320" y="460" width="80" height="10" as="geometry" />
        </mxCell>
        <mxCell id="v80r0oKCXjvkZ5n5FINj-29" value="" style="endArrow=none;html=1;" edge="1" parent="1">
          <mxGeometry width="50" height="50" relative="1" as="geometry">
            <mxPoint x="360" y="480" as="sourcePoint" />
            <mxPoint x="360" y="400" as="targetPoint" />
          </mxGeometry>
        </mxCell>
        <mxCell id="v80r0oKCXjvkZ5n5FINj-30" value="Table" style="rounded=0;whiteSpace=wrap;html=1;fontSize=10;" vertex="1" parent="1">
          <mxGeometry x="360" y="170" width="40" height="90" as="geometry" />
        </mxCell>
        <mxCell id="v80r0oKCXjvkZ5n5FINj-31" value="&lt;font style=&quot;font-size: 9px&quot;&gt;Island&lt;br&gt;4w x 7h&lt;/font&gt;" style="text;html=1;strokeColor=none;fillColor=none;align=center;verticalAlign=middle;whiteSpace=wrap;rounded=0;" vertex="1" parent="1">
          <mxGeometry x="280" y="180" width="40" height="70" as="geometry" />
        </mxCell>
        <mxCell id="v80r0oKCXjvkZ5n5FINj-32" value="" style="endArrow=none;html=1;fontSize=10;" edge="1" parent="1">
          <mxGeometry width="50" height="50" relative="1" as="geometry">
            <mxPoint x="320" y="140" as="sourcePoint" />
            <mxPoint x="640" y="140" as="targetPoint" />
          </mxGeometry>
        </mxCell>
        <mxCell id="v80r0oKCXjvkZ5n5FINj-33" value="" style="endArrow=none;html=1;fontSize=10;" edge="1" parent="1">
          <mxGeometry width="50" height="50" relative="1" as="geometry">
            <mxPoint x="640" y="480" as="sourcePoint" />
            <mxPoint x="640" y="140" as="targetPoint" />
          </mxGeometry>
        </mxCell>
        <mxCell id="v80r0oKCXjvkZ5n5FINj-34" value="" style="endArrow=none;html=1;fontSize=10;exitX=1;exitY=1;exitDx=0;exitDy=0;" edge="1" parent="1" source="v80r0oKCXjvkZ5n5FINj-21">
          <mxGeometry width="50" height="50" relative="1" as="geometry">
            <mxPoint x="590" y="530" as="sourcePoint" />
            <mxPoint x="640" y="480" as="targetPoint" />
          </mxGeometry>
        </mxCell>
        <mxCell id="v80r0oKCXjvkZ5n5FINj-35" value="60w" style="text;html=1;strokeColor=none;fillColor=none;align=center;verticalAlign=middle;whiteSpace=wrap;rounded=0;fontSize=10;" vertex="1" parent="1">
          <mxGeometry x="40" y="110" width="600" height="20" as="geometry" />
        </mxCell>
        <mxCell id="v80r0oKCXjvkZ5n5FINj-36" value="34h" style="text;html=1;strokeColor=none;fillColor=none;align=center;verticalAlign=middle;whiteSpace=wrap;rounded=0;fontSize=10;" vertex="1" parent="1">
          <mxGeometry x="640" y="140" width="40" height="340" as="geometry" />
        </mxCell>
      </root>
    </mxGraphModel>
  </diagram>
</mxfile>
